HIERARCHY
ROOT Root
{
	OFFSET 0.000000 -0.207670 -0.502544
	CHANNELS 6 Xposition Yposition Zposition Xrotation Yrotation Zrotation
	JOINT Neck
	{
		OFFSET 0.000000 0.080758 0.156000
		CHANNELS 6 Xposition Yposition Zposition Xrotation Yrotation Zrotation
		JOINT SkullBase
		{
			OFFSET -0.000000 0.084546 0.193738
			CHANNELS 6 Xposition Yposition Zposition Xrotation Yrotation Zrotation
			JOINT Head
			{
				OFFSET 0.000000 0.111978 0.116296
				CHANNELS 6 Xposition Yposition Zposition Xrotation Yrotation Zrotation
				JOINT EyeLeft
				{
					OFFSET -0.071230 0.116504 0.023945
					CHANNELS 6 Xposition Yposition Zposition Xrotation Yrotation Zrotation
					End Site
					{
						OFFSET 0.000000 0.000000 0.138595
					}
				}
				JOINT EyeRight
				{
					OFFSET 0.071148 0.116504 0.023945
					CHANNELS 6 Xposition Yposition Zposition Xrotation Yrotation Zrotation
					End Site
					{
						OFFSET 0.000000 0.000000 0.138595
					}
				}
			}
		}
	}
}
MOTION
Frames: 20
Frame Time: 0.041667
0.000000 -0.207670 -0.502544 -0.000000 0.000000 -0.000000 0.000000 0.080758 0.156000 -0.000000 0.000000 23.746713 -0.000000 0.084546 0.193738 2.886338 9.038538 -5.586060 -0.000000 0.111978 0.116296 0.000000 0.000000 0.000003 -0.071230 0.116504 0.023945 3.557177 -2.445098 1.954480 0.071148 0.116504 0.023945 1.238412 0.981552 -0.903727 
0.000000 -0.207670 -0.502544 -0.000000 0.000000 -0.000000 0.000000 0.080758 0.156000 -0.000000 0.000000 24.041185 -0.000000 0.084546 0.193738 3.772253 9.086175 -5.715998 -0.000000 0.111978 0.116296 -0.000000 0.000000 0.000001 -0.071230 0.116504 0.023945 2.979060 -1.935016 1.165019 0.071148 0.116504 0.023945 0.847572 0.788799 -0.920586 
0.000000 -0.207670 -0.502544 -0.000000 0.000000 -0.000000 0.000000 0.080758 0.156000 -0.000000 0.000000 24.338910 -0.000000 0.084546 0.193738 4.623398 9.128483 -5.846434 0.000000 0.111978 0.116296 0.000000 0.000000 0.000001 -0.071230 0.116504 0.023945 2.178674 -1.254095 0.260889 0.071148 0.116504 0.023945 0.455435 0.536760 -0.790040 
0.000000 -0.207670 -0.502544 -0.000000 0.000000 -0.000000 0.000000 0.080758 0.156000 -0.000000 0.000000 24.626635 0.000000 0.084546 0.193738 5.403726 9.162809 -5.970603 -0.000000 0.111978 0.116296 0.000000 -0.000000 0.000002 -0.071230 0.116504 0.023945 1.242253 -0.503917 -0.524521 0.071148 0.116504 0.023945 0.014070 0.227062 -0.594124 
0.000000 -0.207670 -0.502544 -0.000000 0.000000 -0.000000 0.000000 0.080758 0.156000 -0.000000 0.000000 24.891084 -0.000000 0.084546 0.193738 6.077268 9.186841 -6.081673 -0.000000 0.111978 0.116296 0.000000 0.000000 0.000001 -0.071230 0.116504 0.023945 0.226622 0.245149 -1.064760 0.071148 0.116504 0.023945 -0.525132 -0.137898 -0.415418 
0.000000 -0.207670 -0.502544 -0.000000 0.000000 -0.000000 0.000000 0.080758 0.156000 -0.000000 0.000000 25.119009 0.000000 0.084546 0.193738 6.608135 9.198502 -6.172783 -0.000000 0.111978 0.116296 -0.000000 -0.000000 0.000001 -0.071230 0.116504 0.023945 -0.842280 0.971636 -1.370211 0.071148 0.116504 0.023945 -1.211902 -0.554543 -0.337230 
0.000000 -0.207670 -0.502544 -0.000000 0.000000 -0.000000 0.000000 0.080758 0.156000 -0.000000 0.000000 25.297108 0.000000 0.084546 0.193738 6.960481 9.195826 -6.237100 -0.000000 0.111978 0.116296 0.000001 0.000001 0.000002 -0.071230 0.116504 0.023945 -1.939936 1.657301 -1.461725 0.071148 0.116504 0.023945 -2.075871 -1.016293 -0.415309 
0.000000 -0.207670 -0.502544 -0.000000 0.000000 -0.000000 0.000000 0.080758 0.156000 -0.000000 0.000000 25.412096 -0.000000 0.084546 0.193738 7.098456 9.176789 -6.267887 -0.000000 0.111978 0.116296 0.000000 0.000000 -0.000001 -0.071230 0.116504 0.023945 -3.041004 2.284290 -1.361578 0.071148 0.116504 0.023945 -3.060821 -1.512086 -0.591602 
0.000000 -0.207670 -0.502544 -0.000000 0.000000 -0.000000 0.000000 0.080758 0.156000 -0.000000 0.000000 25.450699 0.000000 0.084546 0.193738 6.986124 9.139094 -6.258577 -0.000000 0.111978 0.116296 0.000000 -0.000001 0.000001 -0.071230 0.116504 0.023945 -4.119103 2.835683 -1.093297 0.071148 0.116504 0.023945 -4.087739 -2.032224 -0.778287 
0.000000 -0.207670 -0.502544 -0.000000 0.000000 -0.000000 0.000000 0.080758 0.156000 -0.000000 0.000000 25.399653 0.000000 0.084546 0.193738 6.587385 9.079919 -6.202853 -0.000000 0.111978 0.116296 0.000000 0.000000 0.000003 -0.071230 0.116504 0.023945 -5.146720 3.295914 -0.681481 0.071148 0.116504 0.023945 -5.075974 -2.570496 -0.885880 
0.000000 -0.207670 -0.502544 -0.000000 0.000000 -0.000000 0.000000 0.080758 0.156000 -0.000000 0.000000 25.245711 -0.000000 0.084546 0.193738 5.865925 8.995618 -6.094761 -0.000000 0.111978 0.116296 -0.000000 -0.000001 0.000000 -0.071230 0.116504 0.023945 -6.093060 3.651170 -0.154476 0.071148 0.116504 0.023945 -5.943132 -3.123913 -0.823396 
0.000000 -0.207670 -0.502544 -0.000000 0.000000 -0.000000 0.000000 0.080758 0.156000 -0.000000 0.000000 24.975645 0.000000 0.084546 0.193738 4.785255 8.881431 -5.928912 -0.000000 0.111978 0.116296 -0.000000 0.000001 0.000002 -0.071230 0.116504 0.023945 -6.894322 3.891206 0.413869 0.071148 0.116504 0.023945 -6.615983 -3.666816 -0.560384 
0.000000 -0.207670 -0.502544 -0.000000 0.000000 -0.000000 0.000000 0.080758 0.156000 -0.000000 0.000000 24.576312 -0.000000 0.084546 0.193738 3.308872 8.731144 -5.700723 -0.000000 0.111978 0.116296 -0.000000 0.000002 0.000004 -0.071230 0.116504 0.023945 -7.460966 4.010917 0.914889 0.071148 0.116504 0.023945 -7.046262 -4.116733 -0.203752 
0.000000 -0.207670 -0.502544 -0.000000 0.000000 -0.000000 0.000000 0.080758 0.156000 -0.000000 0.000000 24.034625 -0.000000 0.084546 0.193738 1.419939 8.533306 -5.411570 -0.000000 0.111978 0.116296 -0.000000 -0.000001 0.000000 -0.071230 0.116504 0.023945 -7.702529 4.008414 1.239850 0.071148 0.116504 0.023945 -7.192046 -4.379925 0.121643 
0.000000 -0.207670 -0.502544 -0.000000 0.000000 -0.000000 0.000000 0.080758 0.156000 -0.000000 0.000000 23.337824 0.000000 0.084546 0.193738 -0.754607 8.250520 -5.100148 -0.000000 0.111978 0.116296 0.000001 0.000001 0.000002 -0.071230 0.116504 0.023945 -7.529344 3.881383 1.281871 0.071148 0.116504 0.023945 -7.013550 -4.361328 0.289307 
0.000000 -0.207670 -0.502544 -0.000000 0.000000 -0.000000 0.000000 0.080758 0.156000 -0.000000 0.000000 22.475859 0.000000 0.084546 0.193738 -3.022402 7.838396 -4.823739 0.000000 0.111978 0.116296 0.000001 -0.000001 -0.000000 -0.071230 0.116504 0.023945 -6.853711 3.621821 0.936904 0.071148 0.116504 0.023945 -6.470105 -3.968304 0.167955 
0.000000 -0.207670 -0.502544 -0.000000 0.000000 -0.000000 0.000000 0.080758 0.156000 -0.000000 0.000000 21.440630 -0.000000 0.084546 0.193738 -5.190859 7.258753 -4.641021 0.000000 0.111978 0.116296 0.000000 -0.000000 -0.000001 -0.071230 0.116504 0.023945 -5.591388 3.209392 0.105166 0.071148 0.116504 0.023945 -5.515022 -3.115644 -0.381874 
0.000000 -0.207670 -0.502544 -0.000000 0.000000 -0.000000 0.000000 0.080758 0.156000 -0.000000 0.000000 20.223746 -0.000000 0.084546 0.193738 -7.070007 6.478529 -4.608948 0.000000 0.111978 0.116296 0.000000 -0.000000 -0.000001 -0.071230 0.116504 0.023945 -3.664567 2.603775 -1.306061 0.071148 0.116504 0.023945 -4.088516 -1.732693 -1.511480 
0.000000 -0.207670 -0.502544 -0.000000 0.000000 -0.000000 0.000000 0.080758 0.156000 -0.000000 0.000000 18.816401 0.000000 0.084546 0.193738 -8.474771 5.466455 -4.778857 -0.000000 0.111978 0.116296 0.000001 -0.000000 0.000000 -0.071230 0.116504 0.023945 -0.736767 1.600481 -3.672980 0.071148 0.116504 0.023945 -1.575550 0.515228 -3.857631 
0.000000 -0.207670 -0.502544 -0.000000 0.000000 -0.000000 0.000000 0.080758 0.156000 -0.000000 0.000000 17.209268 -0.000000 0.084546 0.193738 -9.250591 4.196000 -5.184832 -0.000000 0.111978 0.116296 -0.000001 -0.000000 -0.000000 -0.071230 0.116504 0.023945 4.040977 -0.484835 -7.968891 0.071148 0.116504 0.023945 4.157003 4.334966 -9.365883 
